# xmcd CD database file
#
# Track frame offsets:
#	150
#	13820
#	27445
#	41495
#	60303
#	78318
#	92780
#	110842
#	132555
#	143435
#	157792
#	178980
#	193050
#	214713
#	226885
#	239375
#	255042
#	274410
#
# Disc length: 3909 seconds
#
# Revision: 0
# Processed by: cddbd v1.5.1PL0 Copyright (c) Steve Scherf et al.
# Submitted via: CDex 1.51
#
DISCID=f30f4312
DTITLE=Rob Hoeke - Hollands Glorie
DYEAR=2001
DGENRE=Blues
TTITLE0=Down south
TTITLE1=When people talk
TTITLE2=Boogie blues
TTITLE3=Drinking on my bed
TTITLE4=For miss Caulker
TTITLE5=Margio
TTITLE6=Honky Tonky train blues
TTITLE7=Kansas city
TTITLE8=Brushing the boogie
TTITLE9=My babe
TTITLE10=Local shuffle
TTITLE11=Don't leave me baby
TTITLE12=Sentimental journey
TTITLE13=How many more nights
TTITLE14=My life
TTITLE15=Playin' Hooky
TTITLE16=One two   one two three four
TTITLE17=Blow wind blow
EXTD=YEAR: 2001
EXTT0=
EXTT1=
EXTT2=
EXTT3=
EXTT4=
EXTT5=
EXTT6=
EXTT7=
EXTT8=
EXTT9=
EXTT10=
EXTT11=
EXTT12=
EXTT13=
EXTT14=
EXTT15=
EXTT16=
EXTT17=
PLAYORDER=
